ffmpeg started on 2025-06-04 at 19:22:35
Report written to "D:\Convert\FFMetrics\reports\psnr_report-6.txt"
Log level: 32
Command line:
ffmpeg -hide_banner -nostdin -i "G:\\\xc0\xed\xe8\xec\xe5\\\xce\xed\xe3\xee\xe8\xed\xe3\xe8\\!_36_\xce\xf1\xe5\xed\xfc_2024\\DreamCast\\\xc2\xfb \xef\xf0\xe0\xe2\xe4\xe0 \xe6\xe5\xed\xe8\xf2\xe5\xf1\xfc\\[DC] Kekkon Surutte Hontou Desuka - 03_Telegram_HEVC.mkv" -i "G:\\\xc0\xed\xe8\xec\xe5\\\xce\xed\xe3\xee\xe8\xed\xe3\xe8\\!_36_\xce\xf1\xe5\xed\xfc_2024\\DreamCast\\\xc2\xfb \xef\xf0\xe0\xe2\xe4\xe0 \xe6\xe5\xed\xe8\xf2\xe5\xf1\xfc\\[DC] Kekkon Surutte Hontou Desuka - 03_Telegram.mp4" -lavfi "[0:v]settb=AVTB,setpts=PTS-STARTPTS,format=pix_fmts=yuv420p10,fps=24000/1001,scale=1920:1080:flags=bicubic[main];[1:v]settb=AVTB,setpts=PTS-STARTPTS,format=pix_fmts=yuv420p,fps=24000/1001,scale=1920:1080:flags=bicubic[ref];[main][ref]psnr=eof_action=endall:stats_file='D\\:/Convert/FFMetrics/logs/psnr_logfile-6.txt'" -f null -
Input #0, matroska,webm, from 'G:\Аниме\Онгоинги\!_36_Осень_2024\DreamCast\Вы правда женитесь\[DC] Kekkon Surutte Hontou Desuka - 03_Telegram_HEVC.mkv':
  Metadata:
    COMPATIBLE_BRANDS: isomiso2avc1mp41
    MAJOR_BRAND     : isom
    MINOR_VERSION   : 512
    ENCODER         : Lavf61.7.100
  Duration: 00:23:47.71, start: -0.021000, bitrate: 1137 kb/s
  Stream #0:0: Video: hevc (Main 10), yuv420p10le(tv, bt709, progressive), 1920x1080 [SAR 1:1 DAR 16:9], 23.98 fps, 23.98 tbr, 1k tbn (default)
      Metadata:
        HANDLER_NAME    : VideoHandler
        VENDOR_ID       : [0][0][0][0]
        ENCODER         : Lavc61.19.100 libx265
        BPS             : 941545
        DURATION        : 00:23:46.549708333
        NUMBER_OF_FRAMES: 34203
        NUMBER_OF_BYTES : 167895147
        _STATISTICS_WRITING_APP: mkvpropedit v66.0.0 ('Josie') 64-bit
        _STATISTICS_WRITING_DATE_UTC: 2025-05-30 07:35:27
        _STATISTICS_TAGS: BPS DURATION NUMBER_OF_FRAMES NUMBER_OF_BYTES
  Stream #0:1: Audio: aac (LC), 48000 Hz, stereo, fltp (default)
      Metadata:
        HANDLER_NAME    : SoundHandler
        VENDOR_ID       : [0][0][0][0]
        ENCODER         : Lavc61.19.100 aac
        BPS             : 193019
        DURATION        : 00:23:47.712000000
        NUMBER_OF_FRAMES: 66925
        NUMBER_OF_BYTES : 34446969
        _STATISTICS_WRITING_APP: mkvpropedit v66.0.0 ('Josie') 64-bit
        _STATISTICS_WRITING_DATE_UTC: 2025-05-30 07:35:27
        _STATISTICS_TAGS: BPS DURATION NUMBER_OF_FRAMES NUMBER_OF_BYTES
Input #1, mov,mp4,m4a,3gp,3g2,mj2, from 'G:\Аниме\Онгоинги\!_36_Осень_2024\DreamCast\Вы правда женитесь\[DC] Kekkon Surutte Hontou Desuka - 03_Telegram.mp4':
  Metadata:
    major_brand     : isom
    minor_version   : 512
    compatible_brands: isomiso2avc1mp41
    encoder         : Lavf61.1.100
  Duration: 00:23:47.68, start: 0.000000, bitrate: 3418 kb/s
  Stream #1:0[0x1](und): Video: h264 (High) (avc1 / 0x31637661), yuv420p(tv, bt709, progressive), 1920x1080 [SAR 1:1 DAR 16:9], 3273 kb/s, 23.98 fps, 23.98 tbr, 24k tbn (default)
      Metadata:
        handler_name    : VideoHandler
        vendor_id       : [0][0][0][0]
        encoder         : Lavc61.3.100 h264_qsv
  Stream #1:1[0x2](und): Audio: aac (HE-AACv2) (mp4a / 0x6134706D), 48000 Hz, stereo, fltp, 144 kb/s (default)
      Metadata:
        handler_name    : SoundHandler
        vendor_id       : [0][0][0][0]
Stream mapping:
  Stream #0:0 (hevc) -> settb:default
  Stream #1:0 (h264) -> settb:default
  psnr:default -> Stream #0:0 (wrapped_avframe)
  Stream #0:1 -> #0:1 (aac (native) -> pcm_s16le (native))
Output #0, null, to 'pipe:':
  Metadata:
    COMPATIBLE_BRANDS: isomiso2avc1mp41
    MAJOR_BRAND     : isom
    MINOR_VERSION   : 512
    encoder         : Lavf61.7.100
  Stream #0:0: Video: wrapped_avframe, yuv420p10le(tv, bt709, progressive), 1920x1080 [SAR 1:1 DAR 16:9], q=2-31, 200 kb/s, 23.98 fps, 23.98 tbn
      Metadata:
        encoder         : Lavc61.19.100 wrapped_avframe
  Stream #0:1: Audio: pcm_s16le, 48000 Hz, stereo, s16, 1536 kb/s (default)
      Metadata:
        HANDLER_NAME    : SoundHandler
        VENDOR_ID       : [0][0][0][0]
        _STATISTICS_TAGS: BPS DURATION NUMBER_OF_FRAMES NUMBER_OF_BYTES
        BPS             : 193019
        DURATION        : 00:23:47.712000000
        NUMBER_OF_FRAMES: 66925
        NUMBER_OF_BYTES : 34446969
        _STATISTICS_WRITING_APP: mkvpropedit v66.0.0 ('Josie') 64-bit
        _STATISTICS_WRITING_DATE_UTC: 2025-05-30 07:35:27
        encoder         : Lavc61.19.100 pcm_s16le
frame=  174 fps=0.0 q=-0.0 size=N/A time=00:00:07.25 bitrate=N/A speed=13.8x    frame=  392 fps=382 q=-0.0 size=N/A time=00:00:16.34 bitrate=N/A speed=15.9x    frame=  630 fps=406 q=-0.0 size=N/A time=00:00:26.27 bitrate=N/A speed=16.9x    frame=  857 fps=416 q=-0.0 size=N/A time=00:00:35.74 bitrate=N/A speed=17.3x    frame= 1051 fps=407 q=-0.0 size=N/A time=00:00:43.83 bitrate=N/A speed=  17x    frame= 1230 fps=398 q=-0.0 size=N/A time=00:00:51.30 bitrate=N/A speed=16.6x    frame= 1421 fps=394 q=-0.0 size=N/A time=00:00:59.26 bitrate=N/A speed=16.4x    frame= 1641 fps=397 q=-0.0 size=N/A time=00:01:08.44 bitrate=N/A speed=16.6x    frame= 1857 fps=400 q=-0.0 size=N/A time=00:01:17.45 bitrate=N/A speed=16.7x    frame= 2101 fps=408 q=-0.0 size=N/A time=00:01:27.62 bitrate=N/A speed=  17x    frame= 2313 fps=408 q=-0.0 size=N/A time=00:01:36.47 bitrate=N/A speed=  17x    frame= 2545 fps=411 q=-0.0 size=N/A time=00:01:46.14 bitrate=N/A speed=17.1x    frame= 2796 fps=417 q=-0.0 size=N/A time=00:01:56.61 bitrate=N/A speed=17.4x    frame= 3010 fps=417 q=-0.0 size=N/A time=00:02:05.54 bitrate=N/A speed=17.4x    frame= 3250 fps=420 q=-0.0 size=N/A time=00:02:15.55 bitrate=N/A speed=17.5x    frame= 3507 fps=425 q=-0.0 size=N/A time=00:02:26.27 bitrate=N/A speed=17.7x    frame= 3753 fps=428 q=-0.0 size=N/A time=00:02:36.53 bitrate=N/A speed=17.9x    frame= 4003 fps=431 q=-0.0 size=N/A time=00:02:46.95 bitrate=N/A speed=  18x    frame= 4247 fps=434 q=-0.0 size=N/A time=00:02:57.13 bitrate=N/A speed=18.1x    frame= 4485 fps=435 q=-0.0 size=N/A time=00:03:07.06 bitrate=N/A speed=18.1x    frame= 4716 fps=436 q=-0.0 size=N/A time=00:03:16.69 bitrate=N/A speed=18.2x    frame= 4952 fps=437 q=-0.0 size=N/A time=00:03:26.53 bitrate=N/A speed=18.2x    frame= 5206 fps=439 q=-0.0 size=N/A time=00:03:37.13 bitrate=N/A speed=18.3x    frame= 5439 fps=439 q=-0.0 size=N/A time=00:03:46.85 bitrate=N/A speed=18.3x    frame= 5691 fps=442 q=-0.0 size=N/A time=00:03:57.36 bitrate=N/A speed=18.4x    frame= 5908 fps=441 q=-0.0 size=N/A time=00:04:06.41 bitrate=N/A speed=18.4x    frame= 6110 fps=439 q=-0.0 size=N/A time=00:04:14.83 bitrate=N/A speed=18.3x    frame= 6319 fps=438 q=-0.0 size=N/A time=00:04:23.55 bitrate=N/A speed=18.3x    frame= 6548 fps=438 q=-0.0 size=N/A time=00:04:33.10 bitrate=N/A speed=18.3x    frame= 6760 fps=437 q=-0.0 size=N/A time=00:04:41.94 bitrate=N/A speed=18.2x    frame= 6922 fps=433 q=-0.0 size=N/A time=00:04:48.70 bitrate=N/A speed=18.1x    frame= 7168 fps=435 q=-0.0 size=N/A time=00:04:58.96 bitrate=N/A speed=18.1x    frame= 7363 fps=433 q=-0.0 size=N/A time=00:05:07.09 bitrate=N/A speed=  18x    frame= 7607 fps=434 q=-0.0 size=N/A time=00:05:17.27 bitrate=N/A speed=18.1x    frame= 7846 fps=434 q=-0.0 size=N/A time=00:05:27.24 bitrate=N/A speed=18.1x    frame= 8077 fps=435 q=-0.0 size=N/A time=00:05:36.87 bitrate=N/A speed=18.1x    frame= 8318 fps=436 q=-0.0 size=N/A time=00:05:46.92 bitrate=N/A speed=18.2x    frame= 8570 fps=437 q=-0.0 size=N/A time=00:05:57.44 bitrate=N/A speed=18.2x    frame= 8846 fps=440 q=-0.0 size=N/A time=00:06:08.95 bitrate=N/A speed=18.3x    frame= 9085 fps=440 q=-0.0 size=N/A time=00:06:18.92 bitrate=N/A speed=18.4x    frame= 9326 fps=441 q=-0.0 size=N/A time=00:06:28.97 bitrate=N/A speed=18.4x    frame= 9523 fps=439 q=-0.0 size=N/A time=00:06:37.18 bitrate=N/A speed=18.3x    frame= 9766 fps=440 q=-0.0 size=N/A time=00:06:47.32 bitrate=N/A speed=18.4x    frame=10039 fps=442 q=-0.0 size=N/A time=00:06:58.70 bitrate=N/A speed=18.4x    frame=10308 fps=444 q=-0.0 size=N/A time=00:07:09.92 bitrate=N/A speed=18.5x    frame=10541 fps=444 q=-0.0 size=N/A time=00:07:19.64 bitrate=N/A speed=18.5x    frame=10791 fps=445 q=-0.0 size=N/A time=00:07:30.07 bitrate=N/A speed=18.6x    frame=11010 fps=445 q=-0.0 size=N/A time=00:07:39.20 bitrate=N/A speed=18.5x    frame=11244 fps=445 q=-0.0 size=N/A time=00:07:48.96 bitrate=N/A speed=18.6x    frame=11471 fps=445 q=-0.0 size=N/A time=00:07:58.43 bitrate=N/A speed=18.5x    frame=11727 fps=446 q=-0.0 size=N/A time=00:08:09.11 bitrate=N/A speed=18.6x    frame=11967 fps=446 q=-0.0 size=N/A time=00:08:19.12 bitrate=N/A speed=18.6x    frame=12171 fps=445 q=-0.0 size=N/A time=00:08:27.63 bitrate=N/A speed=18.6x    frame=12389 fps=445 q=-0.0 size=N/A time=00:08:36.72 bitrate=N/A speed=18.5x    frame=12608 fps=444 q=-0.0 size=N/A time=00:08:45.85 bitrate=N/A speed=18.5x    frame=12868 fps=445 q=-0.0 size=N/A time=00:08:56.70 bitrate=N/A speed=18.6x    frame=13117 fps=446 q=-0.0 size=N/A time=00:09:07.08 bitrate=N/A speed=18.6x    frame=13377 fps=447 q=-0.0 size=N/A time=00:09:17.93 bitrate=N/A speed=18.6x    frame=13642 fps=448 q=-0.0 size=N/A time=00:09:28.98 bitrate=N/A speed=18.7x    frame=13914 fps=449 q=-0.0 size=N/A time=00:09:40.32 bitrate=N/A speed=18.7x    frame=14173 fps=450 q=-0.0 size=N/A time=00:09:51.13 bitrate=N/A speed=18.8x    frame=14418 fps=451 q=-0.0 size=N/A time=00:10:01.35 bitrate=N/A speed=18.8x    frame=14640 fps=451 q=-0.0 size=N/A time=00:10:10.61 bitrate=N/A speed=18.8x    frame=14862 fps=450 q=-0.0 size=N/A time=00:10:19.86 bitrate=N/A speed=18.8x    frame=15087 fps=450 q=-0.0 size=N/A time=00:10:29.25 bitrate=N/A speed=18.8x    frame=15293 fps=449 q=-0.0 size=N/A time=00:10:37.84 bitrate=N/A speed=18.7x    frame=15511 fps=449 q=-0.0 size=N/A time=00:10:46.93 bitrate=N/A speed=18.7x    frame=15740 fps=449 q=-0.0 size=N/A time=00:10:56.48 bitrate=N/A speed=18.7x    frame=15969 fps=449 q=-0.0 size=N/A time=00:11:06.04 bitrate=N/A speed=18.7x    frame=16156 fps=447 q=-0.0 size=N/A time=00:11:13.83 bitrate=N/A speed=18.7x    frame=16385 fps=447 q=-0.0 size=N/A time=00:11:23.39 bitrate=N/A speed=18.7x    frame=16600 fps=447 q=-0.0 size=N/A time=00:11:32.35 bitrate=N/A speed=18.6x    frame=16778 fps=446 q=-0.0 size=N/A time=00:11:39.78 bitrate=N/A speed=18.6x    frame=16994 fps=445 q=-0.0 size=N/A time=00:11:48.79 bitrate=N/A speed=18.6x    frame=17198 fps=444 q=-0.0 size=N/A time=00:11:57.29 bitrate=N/A speed=18.5x    frame=17405 fps=444 q=-0.0 size=N/A time=00:12:05.93 bitrate=N/A speed=18.5x    frame=17609 fps=443 q=-0.0 size=N/A time=00:12:14.44 bitrate=N/A speed=18.5x    frame=17814 fps=443 q=-0.0 size=N/A time=00:12:22.99 bitrate=N/A speed=18.5x    frame=18000 fps=442 q=-0.0 size=N/A time=00:12:30.75 bitrate=N/A speed=18.4x    frame=18212 fps=441 q=-0.0 size=N/A time=00:12:39.59 bitrate=N/A speed=18.4x    frame=18426 fps=441 q=-0.0 size=N/A time=00:12:48.51 bitrate=N/A speed=18.4x    frame=18652 fps=441 q=-0.0 size=N/A time=00:12:57.94 bitrate=N/A speed=18.4x    frame=18888 fps=441 q=-0.0 size=N/A time=00:13:07.78 bitrate=N/A speed=18.4x    frame=19149 fps=442 q=-0.0 size=N/A time=00:13:18.67 bitrate=N/A speed=18.4x    frame=19420 fps=443 q=-0.0 size=N/A time=00:13:29.97 bitrate=N/A speed=18.5x    frame=19660 fps=443 q=-0.0 size=N/A time=00:13:39.98 bitrate=N/A speed=18.5x    frame=19898 fps=443 q=-0.0 size=N/A time=00:13:49.91 bitrate=N/A speed=18.5x    frame=20158 fps=444 q=-0.0 size=N/A time=00:14:00.75 bitrate=N/A speed=18.5x    frame=20418 fps=445 q=-0.0 size=N/A time=00:14:11.60 bitrate=N/A speed=18.6x    frame=20667 fps=445 q=-0.0 size=N/A time=00:14:21.98 bitrate=N/A speed=18.6x    frame=20923 fps=446 q=-0.0 size=N/A time=00:14:32.66 bitrate=N/A speed=18.6x    frame=21185 fps=446 q=-0.0 size=N/A time=00:14:43.59 bitrate=N/A speed=18.6x    frame=21442 fps=447 q=-0.0 size=N/A time=00:14:54.31 bitrate=N/A speed=18.6x    frame=21720 fps=448 q=-0.0 size=N/A time=00:15:05.90 bitrate=N/A speed=18.7x    frame=21982 fps=449 q=-0.0 size=N/A time=00:15:16.83 bitrate=N/A speed=18.7x    frame=22227 fps=449 q=-0.0 size=N/A time=00:15:27.05 bitrate=N/A speed=18.7x    frame=22484 fps=449 q=-0.0 size=N/A time=00:15:37.77 bitrate=N/A speed=18.7x    frame=22740 fps=450 q=-0.0 size=N/A time=00:15:48.44 bitrate=N/A speed=18.8x    frame=23013 fps=450 q=-0.0 size=N/A time=00:15:59.83 bitrate=N/A speed=18.8x    frame=23283 fps=451 q=-0.0 size=N/A time=00:16:11.09 bitrate=N/A speed=18.8x    frame=23536 fps=452 q=-0.0 size=N/A time=00:16:21.64 bitrate=N/A speed=18.8x    frame=23756 fps=451 q=-0.0 size=N/A time=00:16:30.82 bitrate=N/A speed=18.8x    frame=24006 fps=452 q=-0.0 size=N/A time=00:16:41.25 bitrate=N/A speed=18.8x    frame=24240 fps=452 q=-0.0 size=N/A time=00:16:51.01 bitrate=N/A speed=18.8x    frame=24471 fps=452 q=-0.0 size=N/A time=00:17:00.64 bitrate=N/A speed=18.8x    frame=24704 fps=452 q=-0.0 size=N/A time=00:17:10.36 bitrate=N/A speed=18.8x    frame=24967 fps=452 q=-0.0 size=N/A time=00:17:21.33 bitrate=N/A speed=18.9x    frame=25176 fps=452 q=-0.0 size=N/A time=00:17:30.04 bitrate=N/A speed=18.8x    frame=25430 fps=452 q=-0.0 size=N/A time=00:17:40.64 bitrate=N/A speed=18.9x    frame=25690 fps=453 q=-0.0 size=N/A time=00:17:51.48 bitrate=N/A speed=18.9x    frame=25941 fps=453 q=-0.0 size=N/A time=00:18:01.95 bitrate=N/A speed=18.9x    frame=26180 fps=453 q=-0.0 size=N/A time=00:18:11.92 bitrate=N/A speed=18.9x    frame=26447 fps=454 q=-0.0 size=N/A time=00:18:23.06 bitrate=N/A speed=18.9x    frame=26697 fps=454 q=-0.0 size=N/A time=00:18:33.48 bitrate=N/A speed=18.9x    frame=26958 fps=454 q=-0.0 size=N/A time=00:18:44.37 bitrate=N/A speed=18.9x    frame=27238 fps=455 q=-0.0 size=N/A time=00:18:56.05 bitrate=N/A speed=  19x    frame=27492 fps=455 q=-0.0 size=N/A time=00:19:06.64 bitrate=N/A speed=  19x    frame=27753 fps=456 q=-0.0 size=N/A time=00:19:17.53 bitrate=N/A speed=  19x    frame=27988 fps=456 q=-0.0 size=N/A time=00:19:27.33 bitrate=N/A speed=  19x    frame=28241 fps=456 q=-0.0 size=N/A time=00:19:37.88 bitrate=N/A speed=  19x    frame=28478 fps=456 q=-0.0 size=N/A time=00:19:47.76 bitrate=N/A speed=  19x    frame=28652 fps=455 q=-0.0 size=N/A time=00:19:55.02 bitrate=N/A speed=  19x    frame=28898 fps=455 q=-0.0 size=N/A time=00:20:05.28 bitrate=N/A speed=  19x    frame=29140 fps=455 q=-0.0 size=N/A time=00:20:15.38 bitrate=N/A speed=  19x    frame=29391 fps=456 q=-0.0 size=N/A time=00:20:25.89 bitrate=N/A speed=  19x    frame=29654 fps=456 q=-0.0 size=N/A time=00:20:36.81 bitrate=N/A speed=  19x    frame=29898 fps=456 q=-0.0 size=N/A time=00:20:46.99 bitrate=N/A speed=  19x    frame=30123 fps=456 q=-0.0 size=N/A time=00:20:56.38 bitrate=N/A speed=  19x    frame=30375 fps=456 q=-0.0 size=N/A time=00:21:06.89 bitrate=N/A speed=  19x    frame=30601 fps=456 q=-0.0 size=N/A time=00:21:16.31 bitrate=N/A speed=  19x    frame=30868 fps=457 q=-0.0 size=N/A time=00:21:27.45 bitrate=N/A speed=  19x    frame=31151 fps=457 q=-0.0 size=N/A time=00:21:39.25 bitrate=N/A speed=19.1x    frame=31426 fps=458 q=-0.0 size=N/A time=00:21:50.72 bitrate=N/A speed=19.1x    frame=31691 fps=458 q=-0.0 size=N/A time=00:22:01.77 bitrate=N/A speed=19.1x    frame=31965 fps=459 q=-0.0 size=N/A time=00:22:13.20 bitrate=N/A speed=19.1x    frame=32213 fps=459 q=-0.0 size=N/A time=00:22:23.55 bitrate=N/A speed=19.1x    frame=32473 fps=459 q=-0.0 size=N/A time=00:22:34.39 bitrate=N/A speed=19.2x    frame=32702 fps=459 q=-0.0 size=N/A time=00:22:43.94 bitrate=N/A speed=19.2x    frame=32923 fps=459 q=-0.0 size=N/A time=00:22:53.16 bitrate=N/A speed=19.1x    frame=33150 fps=459 q=-0.0 size=N/A time=00:23:02.63 bitrate=N/A speed=19.1x    frame=33314 fps=458 q=-0.0 size=N/A time=00:23:09.47 bitrate=N/A speed=19.1x    frame=33517 fps=457 q=-0.0 size=N/A time=00:23:17.93 bitrate=N/A speed=19.1x    frame=33687 fps=457 q=-0.0 size=N/A time=00:23:25.02 bitrate=N/A speed=  19x    frame=33856 fps=456 q=-0.0 size=N/A time=00:23:32.07 bitrate=N/A speed=  19x    frame=34027 fps=455 q=-0.0 size=N/A time=00:23:39.20 bitrate=N/A speed=  19x    [Parsed_psnr_10 @ 0000018c17ecdb40] PSNR y:48.336974 u:51.130422 v:51.397679 average:49.111597 min:40.348129 max:inf
[out#0/null @ 0000018c0ae7f080] video:14697KiB audio:267700KiB subtitle:0KiB other streams:0KiB global headers:0KiB muxing overhead: unknown
frame=34203 fps=454 q=-0.0 Lsize=N/A time=00:23:46.55 bitrate=N/A speed=  19x    
